{
  "accessors": [
    {
      "bufferView": 2,
      "componentType": 5126,
      "count": 23646,
      "max": [
        0.069447323679924011,
        0.057160094380378723,
        0.056404091417789459
      ],
      "min": [
        -0.056418444961309433,
        -0.011946899816393852,
        -0.056404091417789459
      ],
      "type": "VEC3"
    },
    {
      "bufferView": 2,
      "byteOffset": 283752,
      "componentType": 5126,
      "count": 23646,
      "max": [
        1,
        1,
        1
      ],
      "min": [
        -1,
        -0.99998611211776733,
        -1
      ],
      "type": "VEC3"
    },
    {
      "bufferView": 1,
      "componentType": 5126,
      "count": 23646,
      "max": [
        0.9978104829788208,
        0.99793219566345215
      ],
      "min": [
        0.0019692410714924335,
        0.00034687243169173598
      ],
      "type": "VEC2"
    },
    {
      "bufferView": 0,
      "componentType": 5125,
      "count": 107952,
      "max": [
        23645
      ],
      "min": [
        0
      ],
      "type": "SCALAR"
    }
  ],
  "asset": {
    "extras": {
      "author": "pavanahirrao100 (https://sketchfab.com/pavanahirrao100)",
      "license": "CC-BY-4.0 (http://creativecommons.org/licenses/by/4.0/)",
      "source": "https://sketchfab.com/3d-models/construction-helmet-47a4490dc6024782a057e529a266dba0",
      "title": "Construction helmet"
    },
    "generator": "Sketchfab-10.33.2",
    "version": "2.0"
  },
  "bufferViews": [
    {
      "buffer": 0,
      "byteLength": 431808,
      "byteOffset": 0,
      "name": "floatBufferViews",
      "target": 34963
    },
    {
      "buffer": 0,
      "byteLength": 189168,
      "byteOffset": 431808,
      "byteStride": 8,
      "name": "floatBufferViews",
      "target": 34962
    },
    {
      "buffer": 0,
      "byteLength": 567504,
      "byteOffset": 620976,
      "byteStride": 12,
      "name": "floatBufferViews",
      "target": 34962
    }
  ],
  "buffers": [
    {
      "byteLength": 1188480,
      "uri": "scene.bin"
    }
  ],
  "materials": [
    {
      "doubleSided": true,
      "name": "Mtl1",
      "pbrMetallicRoughness": {
        "baseColorFactor": [
          0.49203814104980514,
          0.49203814104980514,
          0.49203814104980514,
          1
        ],
        "metallicFactor": 0,
        "roughnessFactor": 0
      }
    }
  ],
  "meshes": [
    {
      "name": "Body_1_Mtl1_0",
      "primitives": [
        {
          "attributes": {
            "NORMAL": 1,
            "POSITION": 0,
            "TEXCOORD_0": 2
          },
          "indices": 3,
          "material": 0,
          "mode": 4
        }
      ]
    }
  ],
  "nodes": [
    {
      "children": [
        1
      ],
      "name": "RootNode (gltf orientation matrix)",
      "rotation": [
        -0.70710678118654746,
        -0,
        -0,
        0.70710678118654757
      ]
    },
    {
      "children": [
        2
      ],
      "matrix": [
        3.164096372587494,
        4.6148198987525859,
        0.26105163699845413,
        0,
        4.6221724343971289,
        -3.1600715420909467,
        -0.16026480441934776,
        0,
        0.015236902464459079,
        0.30594214406494835,
        -5.5930653844475842,
        0,
        0.0085340831428766251,
        -0.054257661104202271,
        -0.054731037467718124,
        1
      ],
      "name": "RootNode (model correction matrix)"
    },
    {
      "children": [
        3
      ],
      "matrix": [
        1,
        0,
        0,
        0,
        0,
        -1,
        0,
        0,
        0,
        0,
        -1,
        0,
        0,
        0,
        0,
        1
      ],
      "name": "4efba993d957426b8b5ab7c993139806.fbx"
    },
    {
      "children": [
        4,
        6
      ],
      "name": "RootNode"
    },
    {
      "children": [
        5
      ],
      "matrix": [
        -0.57735026918962573,
        0.57735026918962584,
        -0.57735026918962584,
        0,
        -0.40824829046386313,
        0.40824829046386302,
        0.81649658092772615,
        0,
        0.70710678118654757,
        0.70710678118654757,
        0,
        0,
        0.57735025882720947,
        -0.57735025882720947,
        0.57735025882720947,
        1
      ],
      "name": "Default Camera 1"
    },
    {
      "name": ""
    },
    {
      "children": [
        7
      ],
      "matrix": [
        1,
        -6.6538537006482918e-16,
        1.2999872505124137e-16,
        0,
        -1.2999872505124122e-16,
        2.2204460492503131e-16,
        1,
        0,
        -6.6538537006482918e-16,
        -1,
        2.2204460492503131e-16,
        0,
        7.8373642503725262e-18,
        0.022606596350669861,
        0.011946899816393852,
        1
      ],
      "name": "Assembly-3"
    },
    {
      "children": [
        8
      ],
      "matrix": [
        1,
        -2.4651903288156619e-32,
        7.960126126361983e-33,
        0,
        2.4651903288156619e-32,
        1,
        0,
        0,
        -7.960126126361983e-33,
        1.9623225942860438e-64,
        1,
        0,
        0,
        0,
        0,
        1
      ],
      "name": "tg"
    },
    {
      "children": [
        9
      ],
      "matrix": [
        1,
        -2.4651903288156619e-32,
        7.960126126361983e-33,
        0,
        2.4651903288156619e-32,
        1,
        0,
        0,
        -7.960126126361983e-33,
        1.9623225942860438e-64,
        1,
        0,
        0,
        0,
        0,
        1
      ],
      "name": "Body_1"
    },
    {
      "mesh": 0,
      "name": "Body_1_Mtl1_0"
    }
  ],
  "scene": 0,
  "scenes": [
    {
      "name": "OSG_Scene",
      "nodes": [
        0
      ]
    }
  ]
}

