{
  "accessors": [
    {
      "bufferView": 2,
      "componentType": 5126,
      "count": 4347,
      "max": [
        447.58782958984375,
        209.19921875,
        1357.9873046875
      ],
      "min": [
        -401.07015991210938,
        -2967.1455078125,
        -23.0526123046875
      ],
      "type": "VEC3"
    },
    {
      "bufferView": 2,
      "byteOffset": 52164,
      "componentType": 5126,
      "count": 4347,
      "max": [
        1,
        1,
        1
      ],
      "min": [
        -1,
        -1,
        -1
      ],
      "type": "VEC3"
    },
    {
      "bufferView": 3,
      "componentType": 5126,
      "count": 4347,
      "max": [
        1,
        1,
        1,
        1
      ],
      "min": [
        -1,
        -1,
        -1,
        -1
      ],
      "type": "VEC4"
    },
    {
      "bufferView": 1,
      "componentType": 5126,
      "count": 4347,
      "max": [
        0.99975645542144775,
        0.98562568426132202
      ],
      "min": [
        0.0021023389417678118,
        0.049018889665603638
      ],
      "type": "VEC2"
    },
    {
      "bufferView": 1,
      "byteOffset": 34776,
      "componentType": 5126,
      "count": 4347,
      "max": [
        0.99975645542144775,
        0.98562568426132202
      ],
      "min": [
        0.0021023389417678118,
        0.049018889665603638
      ],
      "type": "VEC2"
    },
    {
      "bufferView": 1,
      "byteOffset": 69552,
      "componentType": 5126,
      "count": 4347,
      "max": [
        0.99975645542144775,
        0.98562568426132202
      ],
      "min": [
        0.0021023389417678118,
        0.049018889665603638
      ],
      "type": "VEC2"
    },
    {
      "bufferView": 1,
      "byteOffset": 104328,
      "componentType": 5126,
      "count": 4347,
      "max": [
        0.99975645542144775,
        0.98562568426132202
      ],
      "min": [
        0.0021023389417678118,
        0.049018889665603638
      ],
      "type": "VEC2"
    },
    {
      "bufferView": 1,
      "byteOffset": 139104,
      "componentType": 5126,
      "count": 4347,
      "max": [
        0.99975645542144775,
        0.98562568426132202
      ],
      "min": [
        0.0021023389417678118,
        0.049018889665603638
      ],
      "type": "VEC2"
    },
    {
      "bufferView": 1,
      "byteOffset": 173880,
      "componentType": 5126,
      "count": 4347,
      "max": [
        0.99975645542144775,
        0.98562568426132202
      ],
      "min": [
        0.0021023389417678118,
        0.049018889665603638
      ],
      "type": "VEC2"
    },
    {
      "bufferView": 1,
      "byteOffset": 208656,
      "componentType": 5126,
      "count": 4347,
      "max": [
        0.99975645542144775,
        0.98562568426132202
      ],
      "min": [
        0.0021023389417678118,
        0.049018889665603638
      ],
      "type": "VEC2"
    },
    {
      "bufferView": 1,
      "byteOffset": 243432,
      "componentType": 5126,
      "count": 4347,
      "max": [
        0.99975645542144775,
        0.98562568426132202
      ],
      "min": [
        0.0021023389417678118,
        0.049018889665603638
      ],
      "type": "VEC2"
    },
    {
      "bufferView": 1,
      "byteOffset": 278208,
      "componentType": 5126,
      "count": 4347,
      "max": [
        0.99975645542144775,
        0.98562568426132202
      ],
      "min": [
        0.0021023389417678118,
        0.049018889665603638
      ],
      "type": "VEC2"
    },
    {
      "bufferView": 1,
      "byteOffset": 312984,
      "componentType": 5126,
      "count": 4347,
      "max": [
        0.99975645542144775,
        0.98562568426132202
      ],
      "min": [
        0.0021023389417678118,
        0.049018889665603638
      ],
      "type": "VEC2"
    },
    {
      "bufferView": 0,
      "componentType": 5125,
      "count": 8676,
      "max": [
        4346
      ],
      "min": [
        0
      ],
      "type": "SCALAR"
    }
  ],
  "asset": {
    "extras": {
      "author": "Thunder (https://sketchfab.com/thunderpwn)",
      "license": "CC-BY-SA-4.0 (http://creativecommons.org/licenses/by-sa/4.0/)",
      "source": "https://sketchfab.com/3d-models/broken-bridge-a3036037924245988cf221d9cdfc3ce0",
      "title": "Broken Bridge"
    },
    "generator": "Sketchfab-9.8.0",
    "version": "2.0"
  },
  "bufferViews": [
    {
      "buffer": 0,
      "byteLength": 34704,
      "byteOffset": 0,
      "name": "floatBufferViews",
      "target": 34963
    },
    {
      "buffer": 0,
      "byteLength": 347760,
      "byteOffset": 34704,
      "byteStride": 8,
      "name": "floatBufferViews",
      "target": 34962
    },
    {
      "buffer": 0,
      "byteLength": 104328,
      "byteOffset": 382464,
      "byteStride": 12,
      "name": "floatBufferViews",
      "target": 34962
    },
    {
      "buffer": 0,
      "byteLength": 69552,
      "byteOffset": 486792,
      "byteStride": 16,
      "name": "floatBufferViews",
      "target": 34962
    }
  ],
  "buffers": [
    {
      "byteLength": 556344,
      "uri": "scene.bin"
    }
  ],
  "images": [
    {
      "uri": "textures/DefaultMaterial_baseColor.png"
    },
    {
      "uri": "textures/DefaultMaterial_metallicRoughness.png"
    },
    {
      "uri": "textures/DefaultMaterial_normal.png"
    }
  ],
  "materials": [
    {
      "doubleSided": true,
      "emissiveFactor": [
        0,
        0,
        0
      ],
      "name": "DefaultMaterial",
      "normalTexture": {
        "index": 2,
        "scale": 1,
        "texCoord": 0
      },
      "pbrMetallicRoughness": {
        "baseColorFactor": [
          1,
          1,
          1,
          1
        ],
        "baseColorTexture": {
          "index": 0,
          "texCoord": 0
        },
        "metallicFactor": 1,
        "metallicRoughnessTexture": {
          "index": 1,
          "texCoord": 0
        },
        "roughnessFactor": 1
      }
    }
  ],
  "meshes": [
    {
      "name": "Cube_DefaultMaterial_0",
      "primitives": [
        {
          "attributes": {
            "NORMAL": 1,
            "POSITION": 0,
            "TANGENT": 2,
            "TEXCOORD_0": 3,
            "TEXCOORD_1": 4,
            "TEXCOORD_2": 5,
            "TEXCOORD_3": 6,
            "TEXCOORD_4": 7,
            "TEXCOORD_5": 8,
            "TEXCOORD_6": 9,
            "TEXCOORD_7": 10,
            "TEXCOORD_8": 11,
            "TEXCOORD_9": 12
          },
          "indices": 13,
          "material": 0,
          "mode": 4
        }
      ]
    }
  ],
  "nodes": [
    {
      "children": [
        1
      ],
      "name": "RootNode (gltf orientation matrix)",
      "rotation": [
        -0.70710678118654746,
        -0,
        -0,
        0.70710678118654757
      ]
    },
    {
      "children": [
        2
      ],
      "name": "RootNode (model correction matrix)"
    },
    {
      "children": [
        3
      ],
      "matrix": [
        1,
        0,
        0,
        0,
        0,
        0,
        1,
        0,
        0,
        -1,
        0,
        0,
        0,
        0,
        0,
        1
      ],
      "name": "broken_bridge.fbx"
    },
    {
      "children": [
        4
      ],
      "name": "RootNode"
    },
    {
      "children": [
        5
      ],
      "matrix": [
        1,
        0,
        0,
        0,
        0,
        -1.331580541386046e-07,
        -0.99999999999999112,
        0,
        0,
        0.99999999999999112,
        -1.331580541386046e-07,
        0,
        0,
        0,
        0,
        1
      ],
      "name": "Cube"
    },
    {
      "mesh": 0,
      "name": "Cube_DefaultMaterial_0"
    }
  ],
  "samplers": [
    {
      "magFilter": 9729,
      "minFilter": 9987,
      "wrapS": 10497,
      "wrapT": 10497
    }
  ],
  "scene": 0,
  "scenes": [
    {
      "name": "OSG_Scene",
      "nodes": [
        0
      ]
    }
  ],
  "textures": [
    {
      "sampler": 0,
      "source": 0
    },
    {
      "sampler": 0,
      "source": 1
    },
    {
      "sampler": 0,
      "source": 2
    }
  ]
}

