{
  "accessors": [
    {
      "bufferView": 2,
      "componentType": 5126,
      "count": 6679,
      "max": [
        29.469100952148438,
        26.442399978637695,
        181.09759521484375
      ],
      "min": [
        -29.469100952148438,
        -26.442399978637695,
        0.39379999041557312
      ],
      "type": "VEC3"
    },
    {
      "bufferView": 2,
      "byteOffset": 80148,
      "componentType": 5126,
      "count": 6679,
      "max": [
        0.99966245889663696,
        0.99946814775466919,
        0.99857276678085327
      ],
      "min": [
        -0.99998784065246582,
        -0.99944686889648438,
        -1
      ],
      "type": "VEC3"
    },
    {
      "bufferView": 3,
      "componentType": 5126,
      "count": 6679,
      "max": [
        0.999988853931427,
        0.99994164705276489,
        0.99946784973144531,
        1
      ],
      "min": [
        -0.99999260902404785,
        -1,
        -0.9999997615814209,
        1
      ],
      "type": "VEC4"
    },
    {
      "bufferView": 1,
      "componentType": 5126,
      "count": 6679,
      "max": [
        0.98059999942779541,
        0.99900001287460327
      ],
      "min": [
        0.0010000000474974513,
        0.0010000000474974513
      ],
      "type": "VEC2"
    },
    {
      "bufferView": 0,
      "componentType": 5125,
      "count": 6900,
      "max": [
        6678
      ],
      "min": [
        0
      ],
      "type": "SCALAR"
    },
    {
      "bufferView": 2,
      "byteOffset": 160296,
      "componentType": 5126,
      "count": 138,
      "max": [
        3.1807999610900879,
        21.059799194335938,
        147.08059692382812
      ],
      "min": [
        1.9620000123977661,
        19.894699096679688,
        144.7738037109375
      ],
      "type": "VEC3"
    },
    {
      "bufferView": 2,
      "byteOffset": 161952,
      "componentType": 5126,
      "count": 138,
      "max": [
        0.9846910834312439,
        0.99340647459030151,
        0.48888689279556274
      ],
      "min": [
        -0.98205447196960449,
        -0.9760737419128418,
        -0.99209445714950562
      ],
      "type": "VEC3"
    },
    {
      "bufferView": 3,
      "byteOffset": 106864,
      "componentType": 5126,
      "count": 138,
      "max": [
        0.94252461194992065,
        0.98151707649230957,
        0.92183244228363037,
        1
      ],
      "min": [
        -0.94485437870025635,
        -0.96936655044555664,
        -0.76016199588775635,
        -1
      ],
      "type": "VEC4"
    },
    {
      "bufferView": 1,
      "byteOffset": 53432,
      "componentType": 5126,
      "count": 138,
      "max": [
        1,
        1
      ],
      "min": [
        0,
        -0.018400000408291817
      ],
      "type": "VEC2"
    },
    {
      "bufferView": 0,
      "byteOffset": 27600,
      "componentType": 5125,
      "count": 138,
      "max": [
        137
      ],
      "min": [
        0
      ],
      "type": "SCALAR"
    }
  ],
  "asset": {
    "extras": {
      "author": "kanistra (https://sketchfab.com/kanistra)",
      "license": "CC-BY-4.0 (http://creativecommons.org/licenses/by/4.0/)",
      "source": "https://sketchfab.com/3d-models/smoking-man-downloadable-4cc32b82a3be42c28949b1281bb2cc3b",
      "title": "Smoking Man [Downloadable]"
    },
    "generator": "Sketchfab-5.47.0",
    "version": "2.0"
  },
  "bufferViews": [
    {
      "buffer": 0,
      "byteLength": 28152,
      "byteOffset": 0,
      "name": "floatBufferViews",
      "target": 34963
    },
    {
      "buffer": 0,
      "byteLength": 54536,
      "byteOffset": 28152,
      "byteStride": 8,
      "name": "floatBufferViews",
      "target": 34962
    },
    {
      "buffer": 0,
      "byteLength": 163608,
      "byteOffset": 82688,
      "byteStride": 12,
      "name": "floatBufferViews",
      "target": 34962
    },
    {
      "buffer": 0,
      "byteLength": 109072,
      "byteOffset": 246296,
      "byteStride": 16,
      "name": "floatBufferViews",
      "target": 34962
    }
  ],
  "buffers": [
    {
      "byteLength": 355368,
      "uri": "scene.bin"
    }
  ],
  "images": [
    {
      "uri": "textures/character_metallicRoughness.png"
    }
  ],
  "materials": [
    {
      "doubleSided": true,
      "name": "character",
      "occlusionTexture": {
        "index": 0,
        "strength": 1,
        "texCoord": 0
      },
      "pbrMetallicRoughness": {
        "baseColorFactor": [
          0.2265340039,
          0.2265340039,
          0.2265340039,
          1
        ],
        "metallicFactor": 0,
        "metallicRoughnessTexture": {
          "index": 0,
          "texCoord": 0
        },
        "roughnessFactor": 0
      }
    },
    {
      "doubleSided": true,
      "emissiveFactor": [
        1,
        0.49561501700000005,
        0
      ],
      "name": "light",
      "pbrMetallicRoughness": {
        "baseColorFactor": [
          0.63580712760000002,
          0.63580712760000002,
          0.63580712760000002,
          1
        ],
        "metallicFactor": 0,
        "roughnessFactor": 0.59999999999999998
      }
    }
  ],
  "meshes": [
    {
      "primitives": [
        {
          "attributes": {
            "NORMAL": 1,
            "POSITION": 0,
            "TANGENT": 2,
            "TEXCOORD_0": 3
          },
          "indices": 4,
          "material": 0,
          "mode": 4
        }
      ]
    },
    {
      "primitives": [
        {
          "attributes": {
            "NORMAL": 6,
            "POSITION": 5,
            "TANGENT": 7,
            "TEXCOORD_0": 8
          },
          "indices": 9,
          "material": 1,
          "mode": 4
        }
      ]
    }
  ],
  "nodes": [
    {
      "children": [
        1
      ],
      "name": "RootNode (gltf orientation matrix)",
      "rotation": [
        -0.70710678118654746,
        -0,
        -0,
        0.70710678118654757
      ]
    },
    {
      "children": [
        2
      ],
      "name": "RootNode (model correction matrix)"
    },
    {
      "children": [
        3,
        4
      ],
      "name": "ca1c2c06d3334d9fbaa9d6f6c4d58810.obj.cleaner.materialmerger.gles"
    },
    {
      "mesh": 0,
      "name": ""
    },
    {
      "mesh": 1,
      "name": ""
    }
  ],
  "samplers": [
    {
      "magFilter": 9729,
      "minFilter": 9987,
      "wrapS": 10497,
      "wrapT": 10497
    }
  ],
  "scene": 0,
  "scenes": [
    {
      "name": "OSG_Scene",
      "nodes": [
        0
      ]
    }
  ],
  "textures": [
    {
      "sampler": 0,
      "source": 0
    }
  ]
}

