{
  "accessors": [
    {
      "bufferView": 2,
      "componentType": 5126,
      "count": 5166,
      "max": [
        104.53044891357422,
        85.49652099609375,
        188.78158569335938
      ],
      "min": [
        -104.53044891357422,
        -87.73627471923828,
        -188.78158569335938
      ],
      "type": "VEC3"
    },
    {
      "bufferView": 2,
      "byteOffset": 61992,
      "componentType": 5126,
      "count": 5166,
      "max": [
        1.0,
        1.0,
        1.0
      ],
      "min": [
        -1.0,
        -1.0,
        -1.0
      ],
      "type": "VEC3"
    },
    {
      "bufferView": 1,
      "componentType": 5126,
      "count": 5166,
      "max": [
        0.99269700050354,
        0.9926930069923401
      ],
      "min": [
        0.007302999962121248,
        0.007306999992579222
      ],
      "type": "VEC2"
    },
    {
      "bufferView": 1,
      "byteOffset": 41328,
      "componentType": 5126,
      "count": 5166,
      "max": [
        0.99269700050354,
        0.9926930069923401
      ],
      "min": [
        0.007302999962121248,
        0.007306999992579222
      ],
      "type": "VEC2"
    },
    {
      "bufferView": 0,
      "componentType": 5125,
      "count": 11160,
      "type": "SCALAR"
    }
  ],
  "asset": {
    "extras": {
      "author": "Grand Dog Studio (https://sketchfab.com/GrandDogStudio)",
      "license": "CC-BY-4.0 (http://creativecommons.org/licenses/by/4.0/)",
      "source": "https://sketchfab.com/3d-models/3d-industrial-tanker-a9d3dac0c55042989309bdcf68c60f76",
      "title": "3D Industrial Tanker"
    },
    "generator": "Sketchfab-11.70.0",
    "version": "2.0"
  },
  "bufferViews": [
    {
      "buffer": 0,
      "byteLength": 44640,
      "name": "floatBufferViews",
      "target": 34963
    },
    {
      "buffer": 0,
      "byteLength": 82656,
      "byteOffset": 44640,
      "byteStride": 8,
      "name": "floatBufferViews",
      "target": 34962
    },
    {
      "buffer": 0,
      "byteLength": 123984,
      "byteOffset": 127296,
      "byteStride": 12,
      "name": "floatBufferViews",
      "target": 34962
    }
  ],
  "buffers": [
    {
      "byteLength": 251280,
      "uri": "scene.bin"
    }
  ],
  "images": [
    {
      "uri": "textures/Tanker_baseColor.png"
    },
    {
      "uri": "textures/Tanker_metallicRoughness.png"
    }
  ],
  "materials": [
    {
      "doubleSided": true,
      "name": "Tanker",
      "occlusionTexture": {
        "index": 1
      },
      "pbrMetallicRoughness": {
        "baseColorTexture": {
          "index": 0
        },
        "metallicRoughnessTexture": {
          "index": 1
        },
        "roughnessFactor": 0.6372269416316345
      }
    }
  ],
  "meshes": [
    {
      "name": "Tanker_Tanker_0",
      "primitives": [
        {
          "attributes": {
            "NORMAL": 1,
            "POSITION": 0,
            "TEXCOORD_0": 2,
            "TEXCOORD_1": 3
          },
          "indices": 4,
          "material": 0,
          "mode": 4
        }
      ]
    }
  ],
  "nodes": [
    {
      "children": [
        1
      ],
      "matrix": [
        1.0,
        0.0,
        0.0,
        0.0,
        0.0,
        2.220446049250313e-16,
        -1.0,
        0.0,
        0.0,
        1.0,
        2.220446049250313e-16,
        0.0,
        0.0,
        0.0,
        0.0,
        1.0
      ],
      "name": "Sketchfab_model"
    },
    {
      "children": [
        2
      ],
      "matrix": [
        0.009999999776482582,
        0.0,
        0.0,
        0.0,
        0.0,
        0.0,
        0.009999999776482582,
        0.0,
        0.0,
        -0.009999999776482582,
        0.0,
        0.0,
        0.0,
        0.0,
        0.0,
        1.0
      ],
      "name": "94d6c67918f74c6fbb1dbab506f21050.fbx"
    },
    {
      "children": [
        3
      ],
      "name": "RootNode"
    },
    {
      "children": [
        4
      ],
      "matrix": [
        10.0,
        0.0,
        0.0,
        0.0,
        0.0,
        9.999999999999867,
        1.6292068494294586e-06,
        0.0,
        0.0,
        -1.6292068494294586e-06,
        9.999999999999867,
        0.0,
        0.0,
        0.0,
        0.0,
        1.0
      ],
      "name": "Tanker"
    },
    {
      "mesh": 0,
      "name": "Tanker_Tanker_0"
    }
  ],
  "samplers": [
    {
      "magFilter": 9729,
      "minFilter": 9987,
      "wrapS": 10497,
      "wrapT": 10497
    }
  ],
  "scene": 0,
  "scenes": [
    {
      "name": "Sketchfab_Scene",
      "nodes": [
        0
      ]
    }
  ],
  "textures": [
    {
      "sampler": 0,
      "source": 0
    },
    {
      "sampler": 0,
      "source": 1
    }
  ]
}
