{
  "accessors": [
    {
      "bufferView": 2,
      "componentType": 5126,
      "count": 1595,
      "max": [
        235.72891235351563,
        199.62020874023438,
        117.4675064086914
      ],
      "min": [
        -235.72891235351563,
        166.06021118164063,
        -115.4795150756836
      ],
      "type": "VEC3"
    },
    {
      "bufferView": 2,
      "byteOffset": 19140,
      "componentType": 5126,
      "count": 1595,
      "max": [
        0.9999942183494568,
        1.0,
        0.9999897480010986
      ],
      "min": [
        -1.0,
        -0.9984756112098694,
        -0.999634861946106
      ],
      "type": "VEC3"
    },
    {
      "bufferView": 3,
      "componentType": 5126,
      "count": 1595,
      "max": [
        0.9397140741348267,
        0.9996362924575806,
        1.0,
        1.0
      ],
      "min": [
        -0.9999899864196777,
        -1.0,
        -0.999810516834259,
        -1.0
      ],
      "type": "VEC4"
    },
    {
      "bufferView": 1,
      "componentType": 5126,
      "count": 1595,
      "max": [
        0.9968649744987488,
        0.9963669776916504
      ],
      "min": [
        0.32274600863456726,
        0.515084981918335
      ],
      "type": "VEC2"
    },
    {
      "bufferView": 0,
      "componentType": 5125,
      "count": 7080,
      "type": "SCALAR"
    },
    {
      "bufferView": 2,
      "byteOffset": 38280,
      "componentType": 5126,
      "count": 2432,
      "max": [
        235.72891235351563,
        173.80288696289063,
        115.47950744628906
      ],
      "min": [
        -235.72891235351563,
        1.6050950288772583,
        -115.4795150756836
      ],
      "type": "VEC3"
    },
    {
      "bufferView": 2,
      "byteOffset": 67464,
      "componentType": 5126,
      "count": 2432,
      "max": [
        1.0,
        0.9999071359634399,
        1.0
      ],
      "min": [
        -1.0,
        -1.0,
        -1.0
      ],
      "type": "VEC3"
    },
    {
      "bufferView": 3,
      "byteOffset": 25520,
      "componentType": 5126,
      "count": 2432,
      "max": [
        1.0,
        1.0,
        1.0,
        1.0
      ],
      "min": [
        -1.0,
        -1.0,
        -1.0,
        -1.0
      ],
      "type": "VEC4"
    },
    {
      "bufferView": 1,
      "byteOffset": 12760,
      "componentType": 5126,
      "count": 2432,
      "max": [
        0.9962729811668396,
        0.9988970160484314
      ],
      "min": [
        0.0035280000884085894,
        0.006238999776542187
      ],
      "type": "VEC2"
    },
    {
      "bufferView": 0,
      "byteOffset": 28320,
      "componentType": 5125,
      "count": 9498,
      "type": "SCALAR"
    },
    {
      "bufferView": 2,
      "byteOffset": 96648,
      "componentType": 5126,
      "count": 1816,
      "max": [
        233.66661071777344,
        137.07009887695313,
        40.53749465942383
      ],
      "min": [
        -233.66671752929688,
        81.02999877929688,
        -40.53750228881836
      ],
      "type": "VEC3"
    },
    {
      "bufferView": 2,
      "byteOffset": 118440,
      "componentType": 5126,
      "count": 1816,
      "max": [
        1.0,
        1.0,
        1.0
      ],
      "min": [
        -1.0,
        -1.0,
        -1.0
      ],
      "type": "VEC3"
    },
    {
      "bufferView": 3,
      "byteOffset": 64432,
      "componentType": 5126,
      "count": 1816,
      "max": [
        1.0,
        1.0,
        0.9998686909675598,
        1.0
      ],
      "min": [
        -1.0,
        -1.0,
        -1.0,
        1.0
      ],
      "type": "VEC4"
    },
    {
      "bufferView": 1,
      "byteOffset": 32216,
      "componentType": 5126,
      "count": 1816,
      "max": [
        0.4543200135231018,
        0.8465330004692078
      ],
      "min": [
        0.005967999808490276,
        0.4436900019645691
      ],
      "type": "VEC2"
    },
    {
      "bufferView": 0,
      "byteOffset": 66312,
      "componentType": 5125,
      "count": 5328,
      "type": "SCALAR"
    }
  ],
  "asset": {
    "extras": {
      "author": "EXTRUD (https://sketchfab.com/sheremenik)",
      "license": "CC-BY-4.0 (http://creativecommons.org/licenses/by/4.0/)",
      "source": "https://sketchfab.com/3d-models/military-metal-box-9e50e7cb25924ea5a383eb51bf53679f",
      "title": "Military metal box"
    },
    "generator": "Sketchfab-11.75.0",
    "version": "2.0"
  },
  "bufferViews": [
    {
      "buffer": 0,
      "byteLength": 87624,
      "name": "floatBufferViews",
      "target": 34963
    },
    {
      "buffer": 0,
      "byteLength": 46744,
      "byteOffset": 87624,
      "byteStride": 8,
      "name": "floatBufferViews",
      "target": 34962
    },
    {
      "buffer": 0,
      "byteLength": 140232,
      "byteOffset": 134368,
      "byteStride": 12,
      "name": "floatBufferViews",
      "target": 34962
    },
    {
      "buffer": 0,
      "byteLength": 93488,
      "byteOffset": 274600,
      "byteStride": 16,
      "name": "floatBufferViews",
      "target": 34962
    }
  ],
  "buffers": [
    {
      "byteLength": 368088,
      "uri": "scene.bin"
    }
  ],
  "images": [
    {
      "uri": "textures/lambert3_baseColor.jpeg"
    },
    {
      "uri": "textures/lambert3_metallicRoughness.png"
    },
    {
      "uri": "textures/lambert3_normal.png"
    }
  ],
  "materials": [
    {
      "doubleSided": true,
      "name": "lambert3",
      "normalTexture": {
        "index": 2
      },
      "pbrMetallicRoughness": {
        "baseColorTexture": {
          "index": 0
        },
        "metallicRoughnessTexture": {
          "index": 1
        }
      }
    }
  ],
  "meshes": [
    {
      "name": "defaultMaterial",
      "primitives": [
        {
          "attributes": {
            "NORMAL": 1,
            "POSITION": 0,
            "TANGENT": 2,
            "TEXCOORD_0": 3
          },
          "indices": 4,
          "material": 0,
          "mode": 4
        }
      ]
    },
    {
      "name": "defaultMaterial",
      "primitives": [
        {
          "attributes": {
            "NORMAL": 6,
            "POSITION": 5,
            "TANGENT": 7,
            "TEXCOORD_0": 8
          },
          "indices": 9,
          "material": 0,
          "mode": 4
        }
      ]
    },
    {
      "name": "defaultMaterial",
      "primitives": [
        {
          "attributes": {
            "NORMAL": 11,
            "POSITION": 10,
            "TANGENT": 12,
            "TEXCOORD_0": 13
          },
          "indices": 14,
          "material": 0,
          "mode": 4
        }
      ]
    }
  ],
  "nodes": [
    {
      "children": [
        1
      ],
      "matrix": [
        1.0,
        0.0,
        0.0,
        0.0,
        0.0,
        2.220446049250313e-16,
        -1.0,
        0.0,
        0.0,
        1.0,
        2.220446049250313e-16,
        0.0,
        0.0,
        0.0,
        0.0,
        1.0
      ],
      "name": "Sketchfab_model"
    },
    {
      "children": [
        2,
        4,
        6
      ],
      "matrix": [
        1.0,
        0.0,
        0.0,
        0.0,
        0.0,
        -4.371139006309477e-08,
        0.999999999999999,
        0.0,
        0.0,
        -0.999999999999999,
        -4.371139006309477e-08,
        0.0,
        0.0,
        0.0,
        0.0,
        1.0
      ],
      "name": "Collada visual scene group"
    },
    {
      "children": [
        3
      ],
      "matrix": [
        0.008106,
        0.0,
        0.0,
        0.0,
        0.0,
        0.008106,
        0.0,
        0.0,
        0.0,
        0.0,
        0.008106,
        0.0,
        0.0,
        0.0,
        0.0,
        1.0
      ],
      "name": "uv:textureEditorIsolateSelectSetpCube1polySurface2"
    },
    {
      "mesh": 0,
      "name": "defaultMaterial"
    },
    {
      "children": [
        5
      ],
      "matrix": [
        0.008106,
        0.0,
        0.0,
        0.0,
        0.0,
        0.008106,
        0.0,
        0.0,
        0.0,
        0.0,
        0.008106,
        0.0,
        0.0,
        0.0,
        0.0,
        1.0
      ],
      "name": "uv:textureEditorIsolateSelectSetpolySurface1pCube1"
    },
    {
      "mesh": 1,
      "name": "defaultMaterial"
    },
    {
      "children": [
        7
      ],
      "matrix": [
        0.008106,
        0.0,
        0.0,
        0.0,
        0.0,
        0.008106,
        0.0,
        0.0,
        0.0,
        0.0,
        0.008106,
        0.0,
        0.0,
        0.0,
        0.0,
        1.0
      ],
      "name": "uv:textureEditorIsolateSelectSetpCube6"
    },
    {
      "mesh": 2,
      "name": "defaultMaterial"
    }
  ],
  "samplers": [
    {
      "magFilter": 9729,
      "minFilter": 9987,
      "wrapS": 10497,
      "wrapT": 10497
    }
  ],
  "scene": 0,
  "scenes": [
    {
      "name": "Sketchfab_Scene",
      "nodes": [
        0
      ]
    }
  ],
  "textures": [
    {
      "sampler": 0,
      "source": 0
    },
    {
      "sampler": 0,
      "source": 1
    },
    {
      "sampler": 0,
      "source": 2
    }
  ]
}
