{
  "accessors": [
    {
      "bufferView": 2,
      "componentType": 5126,
      "count": 4218,
      "max": [
        102.08422088623047,
        73.81385803222656,
        37.19794845581055
      ],
      "min": [
        -102.23380279541016,
        -0.18524615466594696,
        -39.462364196777344
      ],
      "type": "VEC3"
    },
    {
      "bufferView": 2,
      "byteOffset": 50616,
      "componentType": 5126,
      "count": 4218,
      "max": [
        1.0,
        1.0,
        1.0
      ],
      "min": [
        -1.0,
        -1.0,
        -1.0
      ],
      "type": "VEC3"
    },
    {
      "bufferView": 3,
      "componentType": 5126,
      "count": 4218,
      "max": [
        1.0,
        1.0,
        1.0,
        1.0
      ],
      "min": [
        -1.0,
        -1.0,
        -1.0,
        -1.0
      ],
      "type": "VEC4"
    },
    {
      "bufferView": 1,
      "componentType": 5126,
      "count": 4218,
      "max": [
        0.9744853973388672,
        0.999627411365509
      ],
      "min": [
        0.00037255880306474864,
        0.00037255880306474864
      ],
      "type": "VEC2"
    },
    {
      "bufferView": 1,
      "byteOffset": 33744,
      "componentType": 5126,
      "count": 4218,
      "max": [
        0.9744853973388672,
        0.999627411365509
      ],
      "min": [
        0.00037255880306474864,
        0.00037255880306474864
      ],
      "type": "VEC2"
    },
    {
      "bufferView": 1,
      "byteOffset": 67488,
      "componentType": 5126,
      "count": 4218,
      "max": [
        0.9744853973388672,
        0.999627411365509
      ],
      "min": [
        0.00037255880306474864,
        0.00037255880306474864
      ],
      "type": "VEC2"
    },
    {
      "bufferView": 0,
      "componentType": 5125,
      "count": 16467,
      "type": "SCALAR"
    }
  ],
  "asset": {
    "extras": {
      "author": "CobbleGames (https://sketchfab.com/cobblegames)",
      "license": "CC-BY-4.0 (http://creativecommons.org/licenses/by/4.0/)",
      "source": "https://sketchfab.com/3d-models/hospital-bed-02ab679ff3f24018a8bcaf30b3b2cd47",
      "title": "Hospital Bed"
    },
    "generator": "Sketchfab-11.49.0",
    "version": "2.0"
  },
  "bufferViews": [
    {
      "buffer": 0,
      "byteLength": 65868,
      "name": "floatBufferViews",
      "target": 34963
    },
    {
      "buffer": 0,
      "byteLength": 101232,
      "byteOffset": 65868,
      "byteStride": 8,
      "name": "floatBufferViews",
      "target": 34962
    },
    {
      "buffer": 0,
      "byteLength": 101232,
      "byteOffset": 167100,
      "byteStride": 12,
      "name": "floatBufferViews",
      "target": 34962
    },
    {
      "buffer": 0,
      "byteLength": 67488,
      "byteOffset": 268332,
      "byteStride": 16,
      "name": "floatBufferViews",
      "target": 34962
    }
  ],
  "buffers": [
    {
      "byteLength": 335820,
      "uri": "scene.bin"
    }
  ],
  "images": [
    {
      "uri": "textures/table.001_baseColor.png"
    },
    {
      "uri": "textures/table.001_metallicRoughness.png"
    },
    {
      "uri": "textures/table.001_normal.png"
    }
  ],
  "materials": [
    {
      "name": "table.001",
      "normalTexture": {
        "index": 2
      },
      "pbrMetallicRoughness": {
        "baseColorTexture": {
          "index": 0
        },
        "metallicRoughnessTexture": {
          "index": 1
        }
      }
    }
  ],
  "meshes": [
    {
      "name": "table_table.001_0",
      "primitives": [
        {
          "attributes": {
            "NORMAL": 1,
            "POSITION": 0,
            "TANGENT": 2,
            "TEXCOORD_0": 3,
            "TEXCOORD_1": 4,
            "TEXCOORD_2": 5
          },
          "indices": 6,
          "material": 0,
          "mode": 4
        }
      ]
    }
  ],
  "nodes": [
    {
      "children": [
        1
      ],
      "matrix": [
        1.0,
        0.0,
        0.0,
        0.0,
        0.0,
        2.220446049250313e-16,
        -1.0,
        0.0,
        0.0,
        1.0,
        2.220446049250313e-16,
        0.0,
        0.0,
        0.0,
        0.0,
        1.0
      ],
      "name": "Sketchfab_model"
    },
    {
      "children": [
        2
      ],
      "matrix": [
        0.009999999776482582,
        0.0,
        0.0,
        0.0,
        0.0,
        0.0,
        0.009999999776482582,
        0.0,
        0.0,
        -0.009999999776482582,
        0.0,
        0.0,
        0.0,
        0.0,
        0.0,
        1.0
      ],
      "name": "c6b0b154af2d4f74807c4fd6a97ac365.fbx"
    },
    {
      "children": [
        3
      ],
      "name": "RootNode"
    },
    {
      "children": [
        4
      ],
      "name": "table"
    },
    {
      "mesh": 0,
      "name": "table_table.001_0"
    }
  ],
  "samplers": [
    {
      "magFilter": 9729,
      "minFilter": 9987,
      "wrapS": 10497,
      "wrapT": 10497
    }
  ],
  "scene": 0,
  "scenes": [
    {
      "name": "Sketchfab_Scene",
      "nodes": [
        0
      ]
    }
  ],
  "textures": [
    {
      "sampler": 0,
      "source": 0
    },
    {
      "sampler": 0,
      "source": 1
    },
    {
      "sampler": 0,
      "source": 2
    }
  ]
}
