{
  "accessors": [
    {
      "bufferView": 2,
      "componentType": 5126,
      "count": 9120,
      "max": [
        5.348902702331543,
        16.933528900146484,
        3.422219753265381
      ],
      "min": [
        -5.348902702331543,
        9.125702857971191,
        -0.4498363733291626
      ],
      "type": "VEC3"
    },
    {
      "bufferView": 2,
      "byteOffset": 109440,
      "componentType": 5126,
      "count": 9120,
      "max": [
        0.9999414682388306,
        0.9998939633369446,
        0.9999902248382568
      ],
      "min": [
        -0.9998889565467834,
        -0.9994543194770813,
        -0.9999853372573853
      ],
      "type": "VEC3"
    },
    {
      "bufferView": 1,
      "componentType": 5126,
      "count": 9120,
      "max": [
        0.9935150146484375,
        0.9738559722900391
      ],
      "min": [
        0.009208000265061855,
        0.01105399988591671
      ],
      "type": "VEC2"
    },
    {
      "bufferView": 0,
      "componentType": 5125,
      "count": 50304,
      "type": "SCALAR"
    },
    {
      "bufferView": 2,
      "byteOffset": 218880,
      "componentType": 5126,
      "count": 1076,
      "max": [
        0.45035725831985474,
        16.005027770996094,
        1.3976914882659912
      ],
      "min": [
        -0.45035722851753235,
        15.697915077209473,
        1.1517446041107178
      ],
      "type": "VEC3"
    },
    {
      "bufferView": 2,
      "byteOffset": 231792,
      "componentType": 5126,
      "count": 1076,
      "max": [
        0.9978868961334229,
        0.9974932074546814,
        0.9984038472175598
      ],
      "min": [
        -0.998147189617157,
        -0.9979074001312256,
        -0.35000309348106384
      ],
      "type": "VEC3"
    },
    {
      "bufferView": 1,
      "byteOffset": 72960,
      "componentType": 5126,
      "count": 1076,
      "max": [
        0.991100013256073,
        0.9763000011444092
      ],
      "min": [
        0.03620000183582306,
        0.010999999940395355
      ],
      "type": "VEC2"
    },
    {
      "bufferView": 0,
      "byteOffset": 201216,
      "componentType": 5125,
      "count": 6120,
      "type": "SCALAR"
    },
    {
      "bufferView": 2,
      "byteOffset": 244704,
      "componentType": 5126,
      "count": 124,
      "max": [
        0.579513669013977,
        16.05613136291504,
        1.514378309249878
      ],
      "min": [
        -0.579513669013977,
        15.880269050598145,
        1.1747912168502808
      ],
      "type": "VEC3"
    },
    {
      "bufferView": 2,
      "byteOffset": 246192,
      "componentType": 5126,
      "count": 124,
      "max": [
        0.9737551808357239,
        0.4149934947490692,
        0.9994272589683533
      ],
      "min": [
        -0.9957614541053772,
        -0.9084323644638062,
        -0.031260743737220764
      ],
      "type": "VEC3"
    },
    {
      "bufferView": 1,
      "byteOffset": 81568,
      "componentType": 5126,
      "count": 124,
      "max": [
        0.9830999970436096,
        0.7822999954223633
      ],
      "min": [
        0.011900000274181366,
        0.03550000116229057
      ],
      "type": "VEC2"
    },
    {
      "bufferView": 0,
      "byteOffset": 225696,
      "componentType": 5125,
      "count": 576,
      "type": "SCALAR"
    },
    {
      "bufferView": 2,
      "byteOffset": 247680,
      "componentType": 5126,
      "count": 4494,
      "max": [
        0.3001554608345032,
        15.389202117919922,
        1.437150239944458
      ],
      "min": [
        -0.3001585900783539,
        14.909438133239746,
        0.7106079459190369
      ],
      "type": "VEC3"
    },
    {
      "bufferView": 2,
      "byteOffset": 301608,
      "componentType": 5126,
      "count": 4494,
      "max": [
        0.9998593330383301,
        0.9996799230575562,
        0.9994240999221802
      ],
      "min": [
        -0.9992597103118896,
        -0.9999520778656006,
        -0.9994317293167114
      ],
      "type": "VEC3"
    },
    {
      "bufferView": 1,
      "byteOffset": 82560,
      "componentType": 5126,
      "count": 4494,
      "max": [
        0.9800000190734863,
        0.9930999875068665
      ],
      "min": [
        0.006899999920278788,
        0.006899999920278788
      ],
      "type": "VEC2"
    },
    {
      "bufferView": 0,
      "byteOffset": 228000,
      "componentType": 5125,
      "count": 21360,
      "type": "SCALAR"
    },
    {
      "bufferView": 2,
      "byteOffset": 355536,
      "componentType": 5126,
      "count": 253,
      "max": [
        0.22261807322502136,
        15.301949501037598,
        1.3360902070999146
      ],
      "min": [
        -0.22261810302734375,
        15.035929679870605,
        0.6301693320274353
      ],
      "type": "VEC3"
    },
    {
      "bufferView": 2,
      "byteOffset": 358572,
      "componentType": 5126,
      "count": 253,
      "max": [
        0.9677454829216003,
        0.9987216591835022,
        0.9859963059425354
      ],
      "min": [
        -0.9809935688972473,
        -0.99983149766922,
        -0.9926002621650696
      ],
      "type": "VEC3"
    },
    {
      "bufferView": 1,
      "byteOffset": 118512,
      "componentType": 5126,
      "count": 253,
      "max": [
        0.96670001745224,
        0.967199981212616
      ],
      "min": [
        0.02889999933540821,
        0.029400000348687172
      ],
      "type": "VEC2"
    },
    {
      "bufferView": 0,
      "byteOffset": 313440,
      "componentType": 5125,
      "count": 1344,
      "type": "SCALAR"
    },
    {
      "bufferView": 2,
      "byteOffset": 361608,
      "componentType": 5126,
      "count": 3962,
      "max": [
        3.1040878295898438,
        14.72128963470459,
        1.6816190481185913
      ],
      "min": [
        -3.12732195854187,
        0.4089612066745758,
        -1.0698565244674683
      ],
      "type": "VEC3"
    },
    {
      "bufferView": 2,
      "byteOffset": 409152,
      "componentType": 5126,
      "count": 3962,
      "max": [
        0.9996265769004822,
        0.9995144605636597,
        0.9999953508377075
      ],
      "min": [
        -0.9998910427093506,
        -0.9816003441810608,
        -0.9999637603759766
      ],
      "type": "VEC3"
    },
    {
      "bufferView": 1,
      "byteOffset": 120536,
      "componentType": 5126,
      "count": 3962,
      "max": [
        0.9789000153541565,
        0.9746000170707703
      ],
      "min": [
        0.032099999487400055,
        0.04349999874830246
      ],
      "type": "VEC2"
    },
    {
      "bufferView": 1,
      "byteOffset": 152232,
      "componentType": 5126,
      "count": 3962,
      "max": [
        0.9789000153541565,
        0.9746000170707703
      ],
      "min": [
        0.032099999487400055,
        0.04349999874830246
      ],
      "type": "VEC2"
    },
    {
      "bufferView": 0,
      "byteOffset": 318816,
      "componentType": 5125,
      "count": 20958,
      "type": "SCALAR"
    },
    {
      "bufferView": 2,
      "byteOffset": 456696,
      "componentType": 5126,
      "count": 2510,
      "max": [
        2.461115598678589,
        2.1764895915985107,
        2.1987874507904053
      ],
      "min": [
        -2.461115598678589,
        -0.21658208966255188,
        -0.3698778450489044
      ],
      "type": "VEC3"
    },
    {
      "bufferView": 2,
      "byteOffset": 486816,
      "componentType": 5126,
      "count": 2510,
      "max": [
        0.9998382329940796,
        0.9993985891342163,
        0.9996068477630615
      ],
      "min": [
        -0.9999083876609802,
        -0.9996700286865234,
        -0.9999881386756897
      ],
      "type": "VEC3"
    },
    {
      "bufferView": 1,
      "byteOffset": 183928,
      "componentType": 5126,
      "count": 2510,
      "max": [
        0.8460999727249146,
        0.9868999719619751
      ],
      "min": [
        0.02500000037252903,
        0.0364999994635582
      ],
      "type": "VEC2"
    },
    {
      "bufferView": 0,
      "byteOffset": 402648,
      "componentType": 5125,
      "count": 12384,
      "type": "SCALAR"
    },
    {
      "bufferView": 3,
      "componentType": 5126,
      "count": 1,
      "max": [
        1.0,
        0.0,
        0.0,
        0.0,
        0.0,
        1.0,
        0.0,
        0.0,
        0.0,
        0.0,
        1.0,
        0.0,
        0.0,
        0.0,
        0.0,
        1.0
      ],
      "min": [
        1.0,
        0.0,
        0.0,
        0.0,
        0.0,
        1.0,
        0.0,
        0.0,
        0.0,
        0.0,
        1.0,
        0.0,
        0.0,
        0.0,
        0.0,
        1.0
      ],
      "type": "MAT4"
    }
  ],
  "asset": {
    "extras": {
      "author": "Free 3D Models (https://sketchfab.com/free3dmodels)",
      "license": "CC-BY-4.0 (http://creativecommons.org/licenses/by/4.0/)",
      "source": "https://sketchfab.com/3d-models/farmer-worksuit-free-3d-model-06ef6cfe922c45bf865045c6ad04e623",
      "title": "Farmer Worksuit FREE 3D MODEL"
    },
    "generator": "Sketchfab-10.76.0",
    "version": "2.0"
  },
  "bufferViews": [
    {
      "buffer": 0,
      "byteLength": 452184,
      "name": "floatBufferViews",
      "target": 34963
    },
    {
      "buffer": 0,
      "byteLength": 204008,
      "byteOffset": 452184,
      "byteStride": 8,
      "name": "floatBufferViews",
      "target": 34962
    },
    {
      "buffer": 0,
      "byteLength": 516936,
      "byteOffset": 656192,
      "byteStride": 12,
      "name": "floatBufferViews",
      "target": 34962
    },
    {
      "buffer": 0,
      "byteLength": 64,
      "byteOffset": 1173128,
      "byteStride": 64,
      "name": "floatBufferViews"
    }
  ],
  "buffers": [
    {
      "byteLength": 1173192,
      "uri": "scene.bin"
    }
  ],
  "images": [
    {
      "uri": "textures/farmer_baseColor.png"
    },
    {
      "uri": "textures/high-poly_baseColor.png"
    },
    {
      "uri": "textures/eyebrow009_baseColor.png"
    },
    {
      "uri": "textures/teeth_shape05_baseColor.png"
    },
    {
      "uri": "textures/tongue01_baseColor.png"
    },
    {
      "uri": "textures/male_worksuit01_baseColor.png"
    },
    {
      "uri": "textures/male_worksuit01_metallicRoughness.png"
    },
    {
      "uri": "textures/shoes03_baseColor.png"
    }
  ],
  "materials": [
    {
      "doubleSided": true,
      "name": "farmer",
      "pbrMetallicRoughness": {
        "baseColorTexture": {
          "index": 0
        },
        "metallicFactor": 0.0,
        "roughnessFactor": 0.9941948203
      }
    },
    {
      "alphaMode": "BLEND",
      "doubleSided": true,
      "name": "high-poly",
      "pbrMetallicRoughness": {
        "baseColorTexture": {
          "index": 1
        },
        "metallicFactor": 0.0,
        "roughnessFactor": 0.7885257473
      }
    },
    {
      "alphaMode": "BLEND",
      "doubleSided": true,
      "name": "eyebrow009",
      "pbrMetallicRoughness": {
        "baseColorTexture": {
          "index": 2
        },
        "metallicFactor": 0.0
      }
    },
    {
      "doubleSided": true,
      "name": "teeth_shape05",
      "pbrMetallicRoughness": {
        "baseColorTexture": {
          "index": 3
        },
        "metallicFactor": 0.0,
        "roughnessFactor": 0.8192102384
      }
    },
    {
      "doubleSided": true,
      "name": "tongue01",
      "pbrMetallicRoughness": {
        "baseColorTexture": {
          "index": 4
        },
        "metallicFactor": 0.0,
        "roughnessFactor": 0.993365524
      }
    },
    {
      "doubleSided": true,
      "name": "male_worksuit01",
      "occlusionTexture": {
        "index": 6
      },
      "pbrMetallicRoughness": {
        "baseColorTexture": {
          "index": 5
        },
        "metallicFactor": 0.0,
        "metallicRoughnessTexture": {
          "index": 6
        },
        "roughnessFactor": 0.9941948203
      }
    },
    {
      "doubleSided": true,
      "name": "shoes03",
      "pbrMetallicRoughness": {
        "baseColorTexture": {
          "index": 7
        },
        "metallicFactor": 0.0,
        "roughnessFactor": 0.9931892111
      }
    }
  ],
  "meshes": [
    {
      "name": "Object_0",
      "primitives": [
        {
          "attributes": {
            "NORMAL": 1,
            "POSITION": 0,
            "TEXCOORD_0": 2
          },
          "indices": 3,
          "material": 0,
          "mode": 4
        }
      ]
    },
    {
      "name": "Object_1",
      "primitives": [
        {
          "attributes": {
            "NORMAL": 5,
            "POSITION": 4,
            "TEXCOORD_0": 6
          },
          "indices": 7,
          "material": 1,
          "mode": 4
        }
      ]
    },
    {
      "name": "Object_2",
      "primitives": [
        {
          "attributes": {
            "NORMAL": 9,
            "POSITION": 8,
            "TEXCOORD_0": 10
          },
          "indices": 11,
          "material": 2,
          "mode": 4
        }
      ]
    },
    {
      "name": "Object_3",
      "primitives": [
        {
          "attributes": {
            "NORMAL": 13,
            "POSITION": 12,
            "TEXCOORD_0": 14
          },
          "indices": 15,
          "material": 3,
          "mode": 4
        }
      ]
    },
    {
      "name": "Object_4",
      "primitives": [
        {
          "attributes": {
            "NORMAL": 17,
            "POSITION": 16,
            "TEXCOORD_0": 18
          },
          "indices": 19,
          "material": 4,
          "mode": 4
        }
      ]
    },
    {
      "name": "Object_5",
      "primitives": [
        {
          "attributes": {
            "NORMAL": 21,
            "POSITION": 20,
            "TEXCOORD_0": 22,
            "TEXCOORD_1": 23
          },
          "indices": 24,
          "material": 5,
          "mode": 4
        }
      ]
    },
    {
      "name": "Object_6",
      "primitives": [
        {
          "attributes": {
            "NORMAL": 26,
            "POSITION": 25,
            "TEXCOORD_0": 27
          },
          "indices": 28,
          "material": 6,
          "mode": 4
        }
      ]
    }
  ],
  "nodes": [
    {
      "children": [
        1
      ],
      "matrix": [
        1.0,
        0.0,
        0.0,
        0.0,
        0.0,
        2.220446049250313e-16,
        -1.0,
        0.0,
        0.0,
        1.0,
        2.220446049250313e-16,
        0.0,
        0.0,
        0.0,
        0.0,
        1.0
      ],
      "name": "Sketchfab_model"
    },
    {
      "children": [
        2
      ],
      "matrix": [
        1.0,
        0.0,
        0.0,
        0.0,
        0.0,
        0.0,
        1.0,
        0.0,
        0.0,
        -1.0,
        0.0,
        0.0,
        0.0,
        0.0,
        0.0,
        1.0
      ],
      "name": "fbe1a4a00a8944e0a8c3e86a2f5df96b.fbx"
    },
    {
      "children": [
        3
      ],
      "name": "RootNode"
    },
    {
      "children": [
        4
      ],
      "name": "Game_engine"
    },
    {
      "children": [
        5,
        6,
        8,
        10,
        12,
        14,
        16,
        18
      ],
      "name": "Object_4"
    },
    {
      "name": "_rootJoint"
    },
    {
      "children": [
        7
      ],
      "matrix": [
        1.0,
        3.3170063797034937e-18,
        4.2711109244452745e-17,
        0.0,
        -3.317006336494522e-18,
        0.9999999999936988,
        -1.0111671500112607e-09,
        0.0,
        -4.271110924753766e-17,
        1.0111671500112607e-09,
        0.9999999999936988,
        0.0,
        8.652970951794712e-20,
        1.1763622609350932e-07,
        5.765329547102738e-09,
        1.0
      ],
      "name": "Object_6"
    },
    {
      "mesh": 0,
      "name": "Object_7"
    },
    {
      "children": [
        9
      ],
      "matrix": [
        1.0,
        0.0,
        0.0,
        0.0,
        0.0,
        1.0000000143306118,
        -1.199059518341983e-09,
        0.0,
        0.0,
        1.1990595183419871e-09,
        1.0000000143306154,
        0.0,
        0.0,
        -1.677114731535312e-07,
        1.057228615763961e-08,
        1.0
      ],
      "name": "Object_8"
    },
    {
      "mesh": 1,
      "name": "Object_9"
    },
    {
      "children": [
        11
      ],
      "matrix": [
        1.0,
        0.0,
        0.0,
        0.0,
        0.0,
        1.0000000143306118,
        -1.199059518341983e-09,
        0.0,
        0.0,
        1.1990595183419871e-09,
        1.0000000143306154,
        0.0,
        0.0,
        -1.677114731535312e-07,
        1.057228615763961e-08,
        1.0
      ],
      "name": "Object_10"
    },
    {
      "mesh": 2,
      "name": "Object_11"
    },
    {
      "children": [
        13
      ],
      "matrix": [
        1.0,
        0.0,
        0.0,
        0.0,
        0.0,
        1.0000000143306118,
        -1.199059518341983e-09,
        0.0,
        0.0,
        1.1990595183419871e-09,
        1.0000000143306154,
        0.0,
        0.0,
        -1.677114731535312e-07,
        1.057228615763961e-08,
        1.0
      ],
      "name": "Object_12"
    },
    {
      "mesh": 3,
      "name": "Object_13"
    },
    {
      "children": [
        15
      ],
      "matrix": [
        1.0,
        0.0,
        0.0,
        0.0,
        0.0,
        1.0000000143306118,
        -1.199059518341983e-09,
        0.0,
        0.0,
        1.1990595183419871e-09,
        1.0000000143306154,
        0.0,
        0.0,
        -1.677114731535312e-07,
        1.057228615763961e-08,
        1.0
      ],
      "name": "Object_14"
    },
    {
      "mesh": 4,
      "name": "Object_15"
    },
    {
      "children": [
        17
      ],
      "matrix": [
        1.0,
        1.7758747188345852e-17,
        -1.394399203532075e-17,
        0.0,
        -1.7758747469703925e-17,
        1.0000000158433515,
        0.0,
        0.0,
        1.3943992256240317e-17,
        2.476278332748241e-34,
        1.0000000158433515,
        0.0,
        3.546019789176587e-16,
        3.917614321835572e-07,
        -2.737341446845676e-07,
        1.0
      ],
      "name": "Object_16"
    },
    {
      "mesh": 5,
      "name": "Object_17"
    },
    {
      "children": [
        19
      ],
      "matrix": [
        1.0000000186152758,
        -1.84525827950921e-09,
        1.347943978657895e-11,
        0.0,
        1.8452582172197515e-09,
        0.9999999848447414,
        -1.9213391225236798e-09,
        0.0,
        -1.3479435852115677e-11,
        1.9213391319719836e-09,
        0.9999999897493576,
        0.0,
        -6.476333402893886e-08,
        1.7657497952683343e-07,
        1.1156723989103057e-08,
        1.0
      ],
      "name": "Object_18"
    },
    {
      "mesh": 6,
      "name": "Object_19"
    }
  ],
  "samplers": [
    {
      "magFilter": 9729,
      "minFilter": 9987,
      "wrapS": 10497,
      "wrapT": 10497
    }
  ],
  "scene": 0,
  "scenes": [
    {
      "name": "Sketchfab_Scene",
      "nodes": [
        0
      ]
    }
  ],
  "skins": [
    {
      "inverseBindMatrices": 29,
      "joints": [
        5
      ],
      "skeleton": 5
    }
  ],
  "textures": [
    {
      "sampler": 0,
      "source": 0
    },
    {
      "sampler": 0,
      "source": 1
    },
    {
      "sampler": 0,
      "source": 2
    },
    {
      "sampler": 0,
      "source": 3
    },
    {
      "sampler": 0,
      "source": 4
    },
    {
      "sampler": 0,
      "source": 5
    },
    {
      "sampler": 0,
      "source": 6
    },
    {
      "sampler": 0,
      "source": 7
    }
  ]
}
