{
    "asset" : {
        "generator" : "Khronos glTF Blender I/O v1.6.16",
        "version" : "2.0"
    },
    "scene" : 0,
    "scenes" : [
        {
            "name" : "Scene",
            "nodes" : [
                0,
                1,
                2,
                3,
                4,
                5
            ]
        }
    ],
    "nodes" : [
        {
            "name" : "Light",
            "rotation" : [
                0.16907575726509094,
                0.7558803558349609,
                -0.27217137813568115,
                0.570947527885437
            ],
            "translation" : [
                4.076245307922363,
                5.903861999511719,
                -1.0054539442062378
            ]
        },
        {
            "name" : "Camera",
            "rotation" : [
                0.483536034822464,
                0.33687159419059753,
                -0.20870360732078552,
                0.7804827094078064
            ],
            "translation" : [
                7.358891487121582,
                4.958309173583984,
                6.925790786743164
            ]
        },
        {
            "mesh" : 0,
            "name" : "Cylinder",
            "scale" : [
                1,
                43.864013671875,
                1
            ]
        },
        {
            "mesh" : 1,
            "name" : "Cylinder.001",
            "rotation" : [
                0.6756047606468201,
                0.04816204309463501,
                -0.025913681834936142,
                0.7352327108383179
            ],
            "scale" : [
                -0.19390051066875458,
                7.290523052215576,
                -0.19390054047107697
            ],
            "translation" : [
                0.17610064148902893,
                3.3219687938690186,
                -0.2854800820350647
            ]
        },
        {
            "mesh" : 2,
            "name" : "Cylinder.002",
            "rotation" : [
                0.6756047606468201,
                0.04816204309463501,
                -0.025913681834936142,
                0.7352327108383179
            ],
            "scale" : [
                -0.1932029277086258,
                4.436489582061768,
                -0.19347718358039856
            ],
            "translation" : [
                -0.1979956328868866,
                3.173811197280884,
                -0.43618637323379517
            ]
        },
        {
            "mesh" : 3,
            "name" : "Cylinder.004",
            "rotation" : [
                0.6756047606468201,
                0.04816204309463501,
                -0.025913681834936142,
                0.7352327108383179
            ],
            "scale" : [
                -0.11182354390621185,
                4.204485893249512,
                -0.11182352155447006
            ],
            "translation" : [
                0.06733313202857971,
                3.1614744663238525,
                -0.531029224395752
            ]
        }
    ],
    "materials" : [
        {
            "doubleSided" : true,
            "name" : "pole",
            "pbrMetallicRoughness" : {
                "baseColorTexture" : {
                    "index" : 0
                },
                "metallicFactor" : 0,
                "roughnessFactor" : 0.5
            }
        },
        {
            "doubleSided" : true,
            "name" : "Material.001",
            "pbrMetallicRoughness" : {
                "baseColorFactor" : [
                    0.8000000715255737,
                    0.010887670330703259,
                    0.01895054057240486,
                    1
                ],
                "metallicFactor" : 0,
                "roughnessFactor" : 0.5
            }
        }
    ],
    "meshes" : [
        {
            "name" : "Cylinder.001",
            "primitives" : [
                {
                    "attributes" : {
                        "POSITION" : 0,
                        "NORMAL" : 1,
                        "TEXCOORD_0" : 2
                    },
                    "indices" : 3,
                    "material" : 0
                }
            ]
        },
        {
            "name" : "Cylinder",
            "primitives" : [
                {
                    "attributes" : {
                        "POSITION" : 4,
                        "NORMAL" : 5,
                        "TEXCOORD_0" : 6
                    },
                    "indices" : 7,
                    "material" : 1
                }
            ]
        },
        {
            "name" : "Cylinder.002",
            "primitives" : [
                {
                    "attributes" : {
                        "POSITION" : 8,
                        "NORMAL" : 9,
                        "TEXCOORD_0" : 10
                    },
                    "indices" : 11,
                    "material" : 1
                }
            ]
        },
        {
            "name" : "Cylinder.004",
            "primitives" : [
                {
                    "attributes" : {
                        "POSITION" : 12,
                        "NORMAL" : 13,
                        "TEXCOORD_0" : 14
                    },
                    "indices" : 15,
                    "material" : 1
                }
            ]
        }
    ],
    "textures" : [
        {
            "sampler" : 0,
            "source" : 0
        }
    ],
    "images" : [
        {
            "bufferView" : 4,
            "mimeType" : "image/jpeg",
            "name" : "pole Metal"
        }
    ],
    "accessors" : [
        {
            "bufferView" : 0,
            "componentType" : 5126,
            "count" : 130,
            "max" : [
                1,
                1,
                1
            ],
            "min" : [
                -1,
                -1,
                -1
            ],
            "type" : "VEC3"
        },
        {
            "bufferView" : 1,
            "componentType" : 5126,
            "count" : 130,
            "type" : "VEC3"
        },
        {
            "bufferView" : 2,
            "componentType" : 5126,
            "count" : 130,
            "type" : "VEC2"
        },
        {
            "bufferView" : 3,
            "componentType" : 5123,
            "count" : 372,
            "type" : "SCALAR"
        },
        {
            "bufferView" : 5,
            "componentType" : 5126,
            "count" : 1250,
            "max" : [
                7.490993499755859,
                0.0657319650053978,
                0.10017970204353333
            ],
            "min" : [
                -1.2249175310134888,
                -0.7162436246871948,
                -30.806386947631836
            ],
            "type" : "VEC3"
        },
        {
            "bufferView" : 6,
            "componentType" : 5126,
            "count" : 1250,
            "type" : "VEC3"
        },
        {
            "bufferView" : 7,
            "componentType" : 5126,
            "count" : 1250,
            "type" : "VEC2"
        },
        {
            "bufferView" : 8,
            "componentType" : 5123,
            "count" : 1908,
            "type" : "SCALAR"
        },
        {
            "bufferView" : 9,
            "componentType" : 5126,
            "count" : 1250,
            "max" : [
                9.78434944152832,
                0.029213234782218933,
                0.5935401916503906
            ],
            "min" : [
                -1.7854690551757812,
                -0.8437378406524658,
                -22.23125648498535
            ],
            "type" : "VEC3"
        },
        {
            "bufferView" : 10,
            "componentType" : 5126,
            "count" : 1250,
            "type" : "VEC3"
        },
        {
            "bufferView" : 11,
            "componentType" : 5126,
            "count" : 1250,
            "type" : "VEC2"
        },
        {
            "bufferView" : 12,
            "componentType" : 5123,
            "count" : 1908,
            "type" : "SCALAR"
        },
        {
            "bufferView" : 13,
            "componentType" : 5126,
            "count" : 1250,
            "max" : [
                3.1206066608428955,
                0.03367806598544121,
                1.2826783657073975
            ],
            "min" : [
                -13.236233711242676,
                -1.1960515975952148,
                -37.638465881347656
            ],
            "type" : "VEC3"
        },
        {
            "bufferView" : 14,
            "componentType" : 5126,
            "count" : 1250,
            "type" : "VEC3"
        },
        {
            "bufferView" : 15,
            "componentType" : 5126,
            "count" : 1250,
            "type" : "VEC2"
        },
        {
            "bufferView" : 16,
            "componentType" : 5123,
            "count" : 1908,
            "type" : "SCALAR"
        }
    ],
    "bufferViews" : [
        {
            "buffer" : 0,
            "byteLength" : 1560,
            "byteOffset" : 0
        },
        {
            "buffer" : 0,
            "byteLength" : 1560,
            "byteOffset" : 1560
        },
        {
            "buffer" : 0,
            "byteLength" : 1040,
            "byteOffset" : 3120
        },
        {
            "buffer" : 0,
            "byteLength" : 744,
            "byteOffset" : 4160
        },
        {
            "buffer" : 0,
            "byteLength" : 1831584,
            "byteOffset" : 4904
        },
        {
            "buffer" : 0,
            "byteLength" : 15000,
            "byteOffset" : 1836488
        },
        {
            "buffer" : 0,
            "byteLength" : 15000,
            "byteOffset" : 1851488
        },
        {
            "buffer" : 0,
            "byteLength" : 10000,
            "byteOffset" : 1866488
        },
        {
            "buffer" : 0,
            "byteLength" : 3816,
            "byteOffset" : 1876488
        },
        {
            "buffer" : 0,
            "byteLength" : 15000,
            "byteOffset" : 1880304
        },
        {
            "buffer" : 0,
            "byteLength" : 15000,
            "byteOffset" : 1895304
        },
        {
            "buffer" : 0,
            "byteLength" : 10000,
            "byteOffset" : 1910304
        },
        {
            "buffer" : 0,
            "byteLength" : 3816,
            "byteOffset" : 1920304
        },
        {
            "buffer" : 0,
            "byteLength" : 15000,
            "byteOffset" : 1924120
        },
        {
            "buffer" : 0,
            "byteLength" : 15000,
            "byteOffset" : 1939120
        },
        {
            "buffer" : 0,
            "byteLength" : 10000,
            "byteOffset" : 1954120
        },
        {
            "buffer" : 0,
            "byteLength" : 3816,
            "byteOffset" : 1964120
        }
    ],
    "samplers" : [
        {
            "magFilter" : 9729,
            "minFilter" : 9987
        }
    ],
    "buffers" : [
        {
            "byteLength" : 1967936,
            "uri" : "data:application/octet-stream;base64,"
        }
    ]
}
